<?xml version="1.0" standalone="no"?>
<!DOCTYPE svg PUBLIC "-//W3C//DTD SVG 20010904//EN"
 "http://www.w3.org/TR/2001/REC-SVG-20010904/DTD/svg10.dtd">
<svg version="1.0" xmlns="http://www.w3.org/2000/svg"
 width="192.000000pt" height="192.000000pt" viewBox="0 0 192.000000 192.000000"
 preserveAspectRatio="xMidYMid meet">

<g transform="translate(0.000000,192.000000) scale(0.100000,-0.100000)"
fill="#000000" stroke="none">
<path d="M880 1894 c-412 -47 -735 -327 -832 -720 -30 -125 -30 -313 0 -438
85 -343 355 -613 698 -698 125 -30 313 -30 438 0 343 85 613 355 698 698 30
125 30 313 0 438 -86 350 -362 621 -712 700 -68 16 -231 27 -290 20z m313
-518 c135 -40 286 -124 356 -199 l24 -26 -53 -61 c-28 -33 -54 -60 -57 -60 -3
0 -28 20 -55 45 -103 93 -299 165 -445 165 -171 0 -353 -70 -465 -178 -43 -40
-42 -40 -110 40 l-41 49 29 31 c58 61 201 146 309 183 151 52 353 56 508 11z
m-111 -227 c62 -13 180 -59 176 -68 -2 -3 -31 -32 -65 -64 l-61 -58 -58 17
c-93 27 -214 16 -307 -28 -40 -19 -90 -50 -111 -69 l-39 -34 -53 59 c-30 33
-54 63 -54 67 0 15 102 90 163 121 121 61 284 83 409 57z m361 -181 l142 -3 0
-90 0 -90 -142 -3 -143 -3 0 -29 c0 -17 -3 -30 -6 -30 -3 0 -43 35 -90 77
l-84 77 87 82 88 81 3 -33 3 -33 142 -3z m-415 -64 c13 -4 21 -12 19 -18 -2
-6 31 -42 74 -81 l78 -70 -45 -3 c-36 -3 -44 -7 -44 -23 0 -24 -1 -24 -43 1
-75 44 -176 36 -249 -21 l-38 -30 -35 40 c-20 22 -45 50 -55 64 l-20 25 31 27
c40 33 118 73 166 84 46 11 129 13 161 5z m601 -323 c0 -3 -40 -41 -87 -83
l-87 -77 -3 34 -3 34 -142 3 -142 3 -3 88 -3 87 146 0 145 0 0 41 0 41 90 -82
c50 -45 90 -85 89 -89z m-599 56 c24 -13 45 -27 47 -33 2 -5 -24 -40 -56 -77
l-60 -67 -58 65 c-32 36 -58 70 -58 77 0 16 83 58 115 58 15 0 46 -10 70 -23z"/>
</g>
</svg>
